<svg xmlns="http://www.w3.org/2000/svg" viewBox="0 0 512 512">
  <defs>
    <linearGradient id="bgGradient" x1="0%" y1="0%" x2="100%" y2="100%">
      <stop offset="0%" style="stop-color:#667eea;stop-opacity:1" />
      <stop offset="100%" style="stop-color:#764ba2;stop-opacity:1" />
    </linearGradient>
    <linearGradient id="nodeGradient" x1="0%" y1="0%" x2="100%" y2="100%">
      <stop offset="0%" style="stop-color:#f093fb;stop-opacity:1" />
      <stop offset="100%" style="stop-color:#f5576c;stop-opacity:1" />
    </linearGradient>
  </defs>
  
  <!-- Background -->
  <rect width="512" height="512" rx="100" fill="url(#bgGradient)"/>
  
  <!-- Mind Map Structure -->
  <!-- Center Node -->
  <circle cx="256" cy="256" r="45" fill="white"/>
  
  <!-- Connecting Lines -->
  <line x1="256" y1="211" x2="256" y2="130" stroke="white" stroke-width="8" stroke-linecap="round"/>
  <line x1="288" y1="232" x2="370" y2="180" stroke="white" stroke-width="8" stroke-linecap="round"/>
  <line x1="288" y1="280" x2="370" y2="332" stroke="white" stroke-width="8" stroke-linecap="round"/>
  <line x1="256" y1="301" x2="256" y2="382" stroke="white" stroke-width="8" stroke-linecap="round"/>
  <line x1="224" y1="280" x2="142" y2="332" stroke="white" stroke-width="8" stroke-linecap="round"/>
  <line x1="224" y1="232" x2="142" y2="180" stroke="white" stroke-width="8" stroke-linecap="round"/>
  
  <!-- Outer Nodes -->
  <circle cx="256" cy="110" r="28" fill="url(#nodeGradient)"/>
  <circle cx="390" cy="170" r="28" fill="url(#nodeGradient)"/>
  <circle cx="390" cy="342" r="28" fill="url(#nodeGradient)"/>
  <circle cx="256" cy="402" r="28" fill="url(#nodeGradient)"/>
  <circle cx="122" cy="342" r="28" fill="url(#nodeGradient)"/>
  <circle cx="122" cy="170" r="28" fill="url(#nodeGradient)"/>
  
  <!-- AI Sparkle in center -->
  <path d="M256 235 L260 250 L275 250 L263 260 L268 275 L256 265 L244 275 L249 260 L237 250 L252 250 Z" fill="url(#bgGradient)"/>
</svg>